<?xml version="1.0" encoding="UTF-8" standalone="no"?>
<svg
   xmlns:dc="http://purl.org/dc/elements/1.1/"
   xmlns:cc="http://creativecommons.org/ns#"
   xmlns:rdf="http://www.w3.org/1999/02/22-rdf-syntax-ns#"
   xmlns:svg="http://www.w3.org/2000/svg"
   xmlns="http://www.w3.org/2000/svg"
   xmlns:sodipodi="http://sodipodi.sourceforge.net/DTD/sodipodi-0.dtd"
   xmlns:inkscape="http://www.inkscape.org/namespaces/inkscape"
   id="regular"
   enable-background="new 0 0 24 24"
   height="512"
   viewBox="0 0 24 24"
   width="512"
   version="1.1"
   sodipodi:docname="linkedin.svg"
   inkscape:version="1.0.1 (3bc2e813f5, 2020-09-07)">
  <metadata
     id="metadata13">
    <rdf:RDF>
      <cc:Work
         rdf:about="">
        <dc:format>image/svg+xml</dc:format>
        <dc:type
           rdf:resource="http://purl.org/dc/dcmitype/StillImage" />
      </cc:Work>
    </rdf:RDF>
  </metadata>
  <defs
     id="defs11" />
  <sodipodi:namedview
     pagecolor="#ffffff"
     bordercolor="#666666"
     borderopacity="1"
     objecttolerance="10"
     gridtolerance="10"
     guidetolerance="10"
     inkscape:pageopacity="0"
     inkscape:pageshadow="2"
     inkscape:window-width="1920"
     inkscape:window-height="1017"
     id="namedview9"
     showgrid="false"
     inkscape:zoom="1.6601562"
     inkscape:cx="256"
     inkscape:cy="231.90588"
     inkscape:window-x="-8"
     inkscape:window-y="-8"
     inkscape:window-maximized="1"
     inkscape:current-layer="regular" />
  <path
     d="m18.59 24c.103 0 4.762-.001 4.66-.001.414 0 .75-.336.75-.75-.35-7.857 1.842-16.148-6.338-16.148-1.573 0-2.826.537-3.729 1.247 0-1.461-1.579-.653-5.224-.87-.414 0-.75.336-.75.75.302 14.166-.674 15.771.75 15.771h4.66c1.353 0 .492-1.908.75-8.188 0-2.594.75-3.102 2.046-3.102 1.434 0 1.675.996 1.675 3.228.257 6.167-.598 8.063.75 8.063zm-2.425-12.791c-4.491 0-3.546 4.938-3.546 11.29h-3.16v-13.521h2.974v1.298c0 .72 1.097 1.074 1.479.35.492-.934 1.77-2.025 3.75-2.025 3.527 0 4.838 1.733 4.838 6.396v7.503h-3.16c0-7.144.756-11.291-3.175-11.291z"
     id="path2"
     style="fill:#ffffff" />
  <path
     d="m1.122 7.479c-1.42 0-.448 1.585-.75 15.771 0 .414.336.75.75.75h4.665c1.42 0 .448-1.585.75-15.771 0-1.295-1.881-.531-5.415-.75zm3.915 15.021h-3.165v-13.521h3.165z"
     id="path4"
     style="fill:#ffffff" />
  <path
     d="m3.452 0c-4.576 0-4.548 6.929 0 6.929 4.545 0 4.581-6.929 0-6.929zm0 5.429c-2.568 0-2.592-3.929 0-3.929 2.597 0 2.564 3.929 0 3.929z"
     id="path6"
     style="fill:#ffffff" />
</svg>
